<mxfile host="app.diagrams.net" modified="2023-09-07T07:06:45.530Z" agent="Mozilla/5.0 (Macintosh; Intel Mac OS X 10_15_7) AppleWebKit/537.36 (KHTML, like Gecko) Chrome/116.0.0.0 Safari/537.36" etag="tD6LqbKEbmYCnc_GpNOx" version="21.7.2" type="github">
  <diagram id="prtHgNgQTEPvFCAcTncT" name="Page-1">
    <mxGraphModel dx="1729" dy="1031" grid="1" gridSize="10" guides="1" tooltips="1" connect="1" arrows="1" fold="1" page="1" pageScale="1" pageWidth="827" pageHeight="1169" math="0" shadow="0">
      <root>
        <mxCell id="0" />
        <mxCell id="1" parent="0" />
        <mxCell id="ZUA0W-4StkhMuRzMiBck-1" value="config&lt;br style=&quot;font-size: 11px;&quot;&gt;" style="html=1;verticalLabelPosition=middle;align=center;labelBackgroundColor=#ffffff;verticalAlign=middle;strokeWidth=2;strokeColor=#0080F0;shadow=0;dashed=0;shape=mxgraph.ios7.icons.folder;labelPosition=center;fontSize=11;" parent="1" vertex="1">
          <mxGeometry x="-640" y="130" width="60" height="31" as="geometry" />
        </mxCell>
        <mxCell id="ZUA0W-4StkhMuRzMiBck-7" value="build" style="html=1;verticalLabelPosition=middle;align=center;labelBackgroundColor=#ffffff;verticalAlign=middle;strokeWidth=2;strokeColor=#E6E6E6;shadow=0;dashed=0;shape=mxgraph.ios7.icons.folder;labelPosition=center;labelBorderColor=none;fontSize=11;" parent="1" vertex="1">
          <mxGeometry x="-640" y="96" width="60" height="30" as="geometry" />
        </mxCell>
        <mxCell id="ZUA0W-4StkhMuRzMiBck-10" value="public" style="html=1;verticalLabelPosition=middle;align=center;labelBackgroundColor=#ffffff;verticalAlign=middle;strokeWidth=2;strokeColor=#E6E6E6;shadow=0;dashed=0;shape=mxgraph.ios7.icons.folder;labelPosition=center;fontSize=11;" parent="1" vertex="1">
          <mxGeometry x="-640" y="291" width="60" height="30" as="geometry" />
        </mxCell>
        <mxCell id="ZUA0W-4StkhMuRzMiBck-11" value="models" style="html=1;verticalLabelPosition=middle;align=center;labelBackgroundColor=#ffffff;verticalAlign=middle;strokeWidth=2;strokeColor=#0080F0;shadow=0;dashed=0;shape=mxgraph.ios7.icons.folder;labelPosition=center;fontSize=11;" parent="1" vertex="1">
          <mxGeometry x="-640" y="222" width="60" height="31" as="geometry" />
        </mxCell>
        <mxCell id="ZUA0W-4StkhMuRzMiBck-13" value="MERN&lt;br&gt;-REP" style="html=1;verticalLabelPosition=middle;align=center;labelBackgroundColor=#ffffff;verticalAlign=middle;strokeWidth=2;strokeColor=#0080F0;shadow=0;dashed=0;shape=mxgraph.ios7.icons.folder;labelPosition=center;fontSize=11;" parent="1" vertex="1">
          <mxGeometry x="-660" y="52" width="60" height="40" as="geometry" />
        </mxCell>
        <mxCell id="ZUA0W-4StkhMuRzMiBck-6" value="node_modules" style="html=1;verticalLabelPosition=middle;align=center;labelBackgroundColor=#ffffff;verticalAlign=middle;strokeWidth=2;strokeColor=#E6E6E6;shadow=0;dashed=0;shape=mxgraph.ios7.icons.folder;labelPosition=center;fontSize=11;" parent="1" vertex="1">
          <mxGeometry x="-640" y="257" width="60" height="30" as="geometry" />
        </mxCell>
        <mxCell id="ZUA0W-4StkhMuRzMiBck-8" value="routes" style="html=1;verticalLabelPosition=middle;align=center;labelBackgroundColor=#ffffff;verticalAlign=middle;strokeWidth=2;strokeColor=#0080F0;shadow=0;dashed=0;shape=mxgraph.ios7.icons.folder;labelPosition=center;fontSize=11;" parent="1" vertex="1">
          <mxGeometry x="-640" y="325" width="60" height="30" as="geometry" />
        </mxCell>
        <mxCell id="ZUA0W-4StkhMuRzMiBck-16" value="src" style="html=1;verticalLabelPosition=middle;align=center;labelBackgroundColor=#ffffff;verticalAlign=middle;strokeWidth=2;strokeColor=#0080F0;shadow=0;dashed=0;shape=mxgraph.ios7.icons.folder;labelPosition=center;fontSize=11;" parent="1" vertex="1">
          <mxGeometry x="-640" y="380" width="60" height="30" as="geometry" />
        </mxCell>
        <mxCell id="ZUA0W-4StkhMuRzMiBck-17" value="controllers" style="html=1;verticalLabelPosition=middle;align=center;labelBackgroundColor=#ffffff;verticalAlign=middle;strokeWidth=2;strokeColor=#0080F0;shadow=0;dashed=0;shape=mxgraph.ios7.icons.folder;labelPosition=center;fontSize=11;" parent="1" vertex="1">
          <mxGeometry x="-640" y="165" width="60" height="31" as="geometry" />
        </mxCell>
        <mxCell id="ZUA0W-4StkhMuRzMiBck-18" value="api" style="html=1;verticalLabelPosition=middle;align=center;labelBackgroundColor=#ffffff;verticalAlign=middle;strokeWidth=2;strokeColor=#0080F0;shadow=0;dashed=0;shape=mxgraph.ios7.icons.folder;labelPosition=center;fontSize=11;" parent="1" vertex="1">
          <mxGeometry x="-619" y="200" width="60" height="20" as="geometry" />
        </mxCell>
        <mxCell id="ZUA0W-4StkhMuRzMiBck-19" value="api" style="html=1;verticalLabelPosition=middle;align=center;labelBackgroundColor=#ffffff;verticalAlign=middle;strokeWidth=2;strokeColor=#0080F0;shadow=0;dashed=0;shape=mxgraph.ios7.icons.folder;labelPosition=center;fontSize=11;" parent="1" vertex="1">
          <mxGeometry x="-620" y="359" width="60" height="17" as="geometry" />
        </mxCell>
        <mxCell id="ZUA0W-4StkhMuRzMiBck-20" value="src" style="html=1;verticalLabelPosition=middle;align=center;labelBackgroundColor=#ffffff;verticalAlign=middle;strokeWidth=2;strokeColor=#0080F0;shadow=0;dashed=0;shape=mxgraph.ios7.icons.folder;labelPosition=center;fontSize=11;" parent="1" vertex="1">
          <mxGeometry x="-640" y="380" width="60" height="30" as="geometry" />
        </mxCell>
        <mxCell id="ZUA0W-4StkhMuRzMiBck-21" value="components" style="html=1;verticalLabelPosition=middle;align=center;labelBackgroundColor=#ffffff;verticalAlign=middle;strokeWidth=2;strokeColor=#0080F0;shadow=0;dashed=0;shape=mxgraph.ios7.icons.folder;labelPosition=center;fontSize=11;" parent="1" vertex="1">
          <mxGeometry x="-620" y="414" width="60" height="21" as="geometry" />
        </mxCell>
        <mxCell id="ZUA0W-4StkhMuRzMiBck-30" value="checkToken.&lt;font color=&quot;#ffff00&quot;&gt;js&lt;/font&gt;" style="rounded=0;whiteSpace=wrap;html=1;fontSize=10;fontColor=#FFFFFF;labelBackgroundColor=#000000;fillColor=#000000;" parent="1" vertex="1">
          <mxGeometry x="-570" y="144" width="79" height="17" as="geometry" />
        </mxCell>
        <mxCell id="ZUA0W-4StkhMuRzMiBck-33" value="checkToken.&lt;font color=&quot;#ffff00&quot;&gt;js&lt;/font&gt;" style="rounded=0;whiteSpace=wrap;html=1;fontSize=10;fontColor=#FFFFFF;labelBackgroundColor=#000000;fillColor=#000000;" parent="1" vertex="1">
          <mxGeometry x="-570" y="144" width="79" height="17" as="geometry" />
        </mxCell>
        <mxCell id="ZUA0W-4StkhMuRzMiBck-34" value="Song.&lt;font color=&quot;#ffff00&quot;&gt;js&lt;/font&gt;" style="rounded=0;whiteSpace=wrap;html=1;fontSize=10;fontColor=#FFFFFF;labelBackgroundColor=#000000;fillColor=#000000;" parent="1" vertex="1">
          <mxGeometry x="-570" y="236" width="79" height="17" as="geometry" />
        </mxCell>
        <mxCell id="ZUA0W-4StkhMuRzMiBck-35" value="ensureLoggedIn.&lt;font color=&quot;#ffff00&quot;&gt;js&lt;/font&gt;" style="rounded=0;whiteSpace=wrap;html=1;fontSize=10;fontColor=#FFFFFF;labelBackgroundColor=#000000;fillColor=#000000;" parent="1" vertex="1">
          <mxGeometry x="-390" y="144" width="79" height="17" as="geometry" />
        </mxCell>
        <mxCell id="ZUA0W-4StkhMuRzMiBck-36" value="database.&lt;font color=&quot;#ffff00&quot;&gt;js&lt;/font&gt;" style="rounded=0;whiteSpace=wrap;html=1;fontSize=10;fontColor=#FFFFFF;labelBackgroundColor=#000000;fillColor=#000000;" parent="1" vertex="1">
          <mxGeometry x="-479" y="144" width="79" height="17" as="geometry" />
        </mxCell>
        <mxCell id="ZUA0W-4StkhMuRzMiBck-38" value="SongNotes.&lt;font color=&quot;#ffff00&quot;&gt;js&lt;/font&gt;" style="rounded=0;whiteSpace=wrap;html=1;fontSize=10;fontColor=#FFFFFF;labelBackgroundColor=#000000;fillColor=#000000;" parent="1" vertex="1">
          <mxGeometry x="-479" y="236" width="79" height="17" as="geometry" />
        </mxCell>
        <mxCell id="ZUA0W-4StkhMuRzMiBck-39" value="schemas&amp;nbsp; &amp;nbsp;&amp;nbsp;" style="shape=step;perimeter=stepPerimeter;whiteSpace=wrap;html=1;fixedSize=1;direction=west;" parent="1" vertex="1">
          <mxGeometry x="-284.5" y="224.25" width="90" height="40.5" as="geometry" />
        </mxCell>
        <mxCell id="ZUA0W-4StkhMuRzMiBck-40" value="users.&lt;font color=&quot;#ffff00&quot;&gt;js&lt;/font&gt;" style="rounded=0;whiteSpace=wrap;html=1;fontSize=10;fontColor=#FFFFFF;labelBackgroundColor=#000000;fillColor=#000000;" parent="1" vertex="1">
          <mxGeometry x="-550" y="203" width="79" height="17" as="geometry" />
        </mxCell>
        <mxCell id="bgRoYJ5HiotTTFX9SD88-1" value="src" style="html=1;verticalLabelPosition=middle;align=center;labelBackgroundColor=#ffffff;verticalAlign=middle;strokeWidth=2;strokeColor=#0080F0;shadow=0;dashed=0;shape=mxgraph.ios7.icons.folder;labelPosition=center;fontSize=11;" parent="1" vertex="1">
          <mxGeometry x="-640" y="380" width="60" height="30" as="geometry" />
        </mxCell>
        <mxCell id="bgRoYJ5HiotTTFX9SD88-5" value="User.&lt;font color=&quot;#ffff00&quot;&gt;js&lt;/font&gt;" style="rounded=0;whiteSpace=wrap;html=1;fontSize=10;fontColor=#FFFFFF;labelBackgroundColor=#000000;fillColor=#000000;" parent="1" vertex="1">
          <mxGeometry x="-390" y="236" width="79" height="17" as="geometry" />
        </mxCell>
        <mxCell id="bgRoYJ5HiotTTFX9SD88-13" style="edgeStyle=orthogonalEdgeStyle;rounded=0;orthogonalLoop=1;jettySize=auto;html=1;exitX=1;exitY=1;exitDx=0;exitDy=0;" parent="1" edge="1">
          <mxGeometry relative="1" as="geometry">
            <mxPoint x="-330.9999999999999" y="372" as="sourcePoint" />
            <mxPoint x="-324.9999999999999" y="372" as="targetPoint" />
          </mxGeometry>
        </mxCell>
        <mxCell id="bgRoYJ5HiotTTFX9SD88-26" value="(all components folders, css/jsx files)" style="rounded=0;whiteSpace=wrap;html=1;fontSize=10;fontColor=#CCFFFF;labelBackgroundColor=#000000;fillColor=#000000;" parent="1" vertex="1">
          <mxGeometry x="-550" y="416" width="170" height="17" as="geometry" />
        </mxCell>
        <mxCell id="DboayZRuPOaU90iK0Edl-110" value="components" style="html=1;verticalLabelPosition=middle;align=center;labelBackgroundColor=#ffffff;verticalAlign=middle;strokeWidth=2;strokeColor=#0080F0;shadow=0;dashed=0;shape=mxgraph.ios7.icons.folder;labelPosition=center;fontSize=11;" parent="1" vertex="1">
          <mxGeometry x="-620" y="414" width="60" height="21" as="geometry" />
        </mxCell>
        <mxCell id="DboayZRuPOaU90iK0Edl-111" value="LoginForm" style="html=1;verticalLabelPosition=middle;align=center;labelBackgroundColor=#ffffff;verticalAlign=middle;strokeWidth=2;strokeColor=#0080F0;shadow=0;dashed=0;shape=mxgraph.ios7.icons.folder;labelPosition=center;fontSize=11;" parent="1" vertex="1">
          <mxGeometry x="-600" y="439" width="60" height="21" as="geometry" />
        </mxCell>
        <mxCell id="m-XJX8wN_ZkhcIlFgh_v-6" value="&lt;font color=&quot;#ffffff&quot;&gt;users.js&lt;/font&gt;" style="rounded=0;whiteSpace=wrap;html=1;fontSize=10;fontColor=#CCFFFF;labelBackgroundColor=#000000;fillColor=#000000;" vertex="1" parent="1">
          <mxGeometry x="-550" y="359" width="100" height="17" as="geometry" />
        </mxCell>
        <mxCell id="m-XJX8wN_ZkhcIlFgh_v-56" value="mern-rep" style="swimlane;html=1;startSize=20;horizontal=1;containerType=tree;glass=0;" vertex="1" parent="1">
          <mxGeometry x="-800" y="670" width="640" height="676" as="geometry" />
        </mxCell>
        <mxCell id="m-XJX8wN_ZkhcIlFgh_v-57" value="&lt;font color=&quot;#0000cc&quot;&gt;CreateSongNote.jsx&lt;/font&gt;" style="swimlane;fontStyle=0;childLayout=stackLayout;horizontal=1;startSize=30;horizontalStack=0;resizeParent=1;resizeParentMax=0;resizeLast=0;collapsible=1;marginBottom=0;whiteSpace=wrap;html=1;" vertex="1" parent="m-XJX8wN_ZkhcIlFgh_v-56">
          <mxGeometry x="173" y="436" width="140" height="90" as="geometry" />
        </mxCell>
        <mxCell id="m-XJX8wN_ZkhcIlFgh_v-58" value="axios.post&amp;nbsp;" style="text;strokeColor=none;fillColor=none;align=left;verticalAlign=middle;spacingLeft=4;spacingRight=4;overflow=hidden;points=[[0,0.5],[1,0.5]];portConstraint=eastwest;rotatable=0;whiteSpace=wrap;html=1;" vertex="1" parent="m-XJX8wN_ZkhcIlFgh_v-57">
          <mxGeometry y="30" width="140" height="30" as="geometry" />
        </mxCell>
        <mxCell id="m-XJX8wN_ZkhcIlFgh_v-59" value="&amp;lt;&lt;font style=&quot;border-color: var(--border-color);&quot; color=&quot;#336600&quot;&gt;SongNoteContainer&lt;/font&gt;/&amp;gt;" style="text;strokeColor=none;fillColor=none;align=left;verticalAlign=middle;spacingLeft=4;spacingRight=4;overflow=hidden;points=[[0,0.5],[1,0.5]];portConstraint=eastwest;rotatable=0;whiteSpace=wrap;html=1;" vertex="1" parent="m-XJX8wN_ZkhcIlFgh_v-57">
          <mxGeometry y="60" width="140" height="30" as="geometry" />
        </mxCell>
        <mxCell id="m-XJX8wN_ZkhcIlFgh_v-67" value="&lt;font color=&quot;#0000cc&quot;&gt;NewOrderPage.jsx&lt;/font&gt;" style="swimlane;fontStyle=0;childLayout=stackLayout;horizontal=1;startSize=30;horizontalStack=0;resizeParent=1;resizeParentMax=0;resizeLast=0;collapsible=1;marginBottom=0;whiteSpace=wrap;html=1;" vertex="1" parent="m-XJX8wN_ZkhcIlFgh_v-56">
          <mxGeometry x="50" y="106" width="140" height="90" as="geometry" />
        </mxCell>
        <mxCell id="m-XJX8wN_ZkhcIlFgh_v-68" value="&amp;lt;&lt;font style=&quot;border-color: var(--border-color);&quot; color=&quot;#336600&quot;&gt;CreateSong&lt;/font&gt;&amp;gt;" style="text;strokeColor=none;fillColor=none;align=left;verticalAlign=middle;spacingLeft=4;spacingRight=4;overflow=hidden;points=[[0,0.5],[1,0.5]];portConstraint=eastwest;rotatable=0;whiteSpace=wrap;html=1;" vertex="1" parent="m-XJX8wN_ZkhcIlFgh_v-67">
          <mxGeometry y="30" width="140" height="30" as="geometry" />
        </mxCell>
        <mxCell id="m-XJX8wN_ZkhcIlFgh_v-69" value="&amp;lt;&lt;font style=&quot;border-color: var(--border-color);&quot; color=&quot;#336600&quot;&gt;SongContainer&lt;/font&gt;/&amp;gt;" style="text;strokeColor=none;fillColor=none;align=left;verticalAlign=middle;spacingLeft=4;spacingRight=4;overflow=hidden;points=[[0,0.5],[1,0.5]];portConstraint=eastwest;rotatable=0;whiteSpace=wrap;html=1;" vertex="1" parent="m-XJX8wN_ZkhcIlFgh_v-67">
          <mxGeometry y="60" width="140" height="30" as="geometry" />
        </mxCell>
        <mxCell id="m-XJX8wN_ZkhcIlFgh_v-71" value="&lt;font color=&quot;#0000cc&quot;&gt;App.jsx&lt;/font&gt;" style="swimlane;fontStyle=0;childLayout=stackLayout;horizontal=1;startSize=30;horizontalStack=0;resizeParent=1;resizeParentMax=0;resizeLast=0;collapsible=1;marginBottom=0;whiteSpace=wrap;html=1;" vertex="1" parent="m-XJX8wN_ZkhcIlFgh_v-56">
          <mxGeometry x="10" y="36" width="140" height="60" as="geometry" />
        </mxCell>
        <mxCell id="m-XJX8wN_ZkhcIlFgh_v-72" value="&amp;lt;&lt;font style=&quot;border-color: var(--border-color);&quot; color=&quot;#336600&quot;&gt;NewOrderPage&lt;/font&gt;/&amp;gt;" style="text;strokeColor=none;fillColor=none;align=left;verticalAlign=middle;spacingLeft=4;spacingRight=4;overflow=hidden;points=[[0,0.5],[1,0.5]];portConstraint=eastwest;rotatable=0;whiteSpace=wrap;html=1;" vertex="1" parent="m-XJX8wN_ZkhcIlFgh_v-71">
          <mxGeometry y="30" width="140" height="30" as="geometry" />
        </mxCell>
        <mxCell id="m-XJX8wN_ZkhcIlFgh_v-74" value="" style="shape=flexArrow;endArrow=classic;html=1;rounded=0;" edge="1" parent="m-XJX8wN_ZkhcIlFgh_v-56">
          <mxGeometry width="50" height="50" relative="1" as="geometry">
            <mxPoint x="10" y="125" as="sourcePoint" />
            <mxPoint x="41" y="125.42000000000007" as="targetPoint" />
          </mxGeometry>
        </mxCell>
        <mxCell id="m-XJX8wN_ZkhcIlFgh_v-73" value="" style="shape=flexArrow;endArrow=classic;html=1;rounded=0;" edge="1" parent="m-XJX8wN_ZkhcIlFgh_v-56">
          <mxGeometry width="50" height="50" relative="1" as="geometry">
            <mxPoint x="50" y="226" as="sourcePoint" />
            <mxPoint x="81" y="226.42000000000007" as="targetPoint" />
          </mxGeometry>
        </mxCell>
        <mxCell id="m-XJX8wN_ZkhcIlFgh_v-65" value="&lt;font color=&quot;#0000cc&quot;&gt;CreateSong.jsx&lt;/font&gt;" style="swimlane;fontStyle=0;childLayout=stackLayout;horizontal=1;startSize=30;horizontalStack=0;resizeParent=1;resizeParentMax=0;resizeLast=0;collapsible=1;marginBottom=0;whiteSpace=wrap;html=1;" vertex="1" parent="m-XJX8wN_ZkhcIlFgh_v-56">
          <mxGeometry x="90" y="206" width="140" height="60" as="geometry" />
        </mxCell>
        <mxCell id="m-XJX8wN_ZkhcIlFgh_v-66" value="axios.post&amp;nbsp;" style="text;strokeColor=none;fillColor=none;align=left;verticalAlign=middle;spacingLeft=4;spacingRight=4;overflow=hidden;points=[[0,0.5],[1,0.5]];portConstraint=eastwest;rotatable=0;whiteSpace=wrap;html=1;" vertex="1" parent="m-XJX8wN_ZkhcIlFgh_v-65">
          <mxGeometry y="30" width="140" height="30" as="geometry" />
        </mxCell>
        <mxCell id="m-XJX8wN_ZkhcIlFgh_v-60" value="&lt;font color=&quot;#0000cc&quot;&gt;&lt;br&gt;SongContainer.jsx&lt;/font&gt;" style="swimlane;fontStyle=0;childLayout=stackLayout;horizontal=1;startSize=30;horizontalStack=0;resizeParent=1;resizeParentMax=0;resizeLast=0;collapsible=1;marginBottom=0;whiteSpace=wrap;html=1;" vertex="1" parent="m-XJX8wN_ZkhcIlFgh_v-56">
          <mxGeometry x="130" y="276" width="140" height="150" as="geometry" />
        </mxCell>
        <mxCell id="m-XJX8wN_ZkhcIlFgh_v-61" value="axios.get" style="text;strokeColor=none;fillColor=none;align=left;verticalAlign=middle;spacingLeft=4;spacingRight=4;overflow=hidden;points=[[0,0.5],[1,0.5]];portConstraint=eastwest;rotatable=0;whiteSpace=wrap;html=1;" vertex="1" parent="m-XJX8wN_ZkhcIlFgh_v-60">
          <mxGeometry y="30" width="140" height="30" as="geometry" />
        </mxCell>
        <mxCell id="m-XJX8wN_ZkhcIlFgh_v-62" value="axios.put" style="text;strokeColor=none;fillColor=none;align=left;verticalAlign=middle;spacingLeft=4;spacingRight=4;overflow=hidden;points=[[0,0.5],[1,0.5]];portConstraint=eastwest;rotatable=0;whiteSpace=wrap;html=1;" vertex="1" parent="m-XJX8wN_ZkhcIlFgh_v-60">
          <mxGeometry y="60" width="140" height="30" as="geometry" />
        </mxCell>
        <mxCell id="m-XJX8wN_ZkhcIlFgh_v-63" value="axios.delete" style="text;strokeColor=none;fillColor=none;align=left;verticalAlign=middle;spacingLeft=4;spacingRight=4;overflow=hidden;points=[[0,0.5],[1,0.5]];portConstraint=eastwest;rotatable=0;whiteSpace=wrap;html=1;" vertex="1" parent="m-XJX8wN_ZkhcIlFgh_v-60">
          <mxGeometry y="90" width="140" height="30" as="geometry" />
        </mxCell>
        <mxCell id="m-XJX8wN_ZkhcIlFgh_v-64" value="&amp;lt;&lt;font color=&quot;#336600&quot;&gt;CreateSongNote&lt;/font&gt;/&amp;gt;" style="text;strokeColor=none;fillColor=none;align=left;verticalAlign=middle;spacingLeft=4;spacingRight=4;overflow=hidden;points=[[0,0.5],[1,0.5]];portConstraint=eastwest;rotatable=0;whiteSpace=wrap;html=1;" vertex="1" parent="m-XJX8wN_ZkhcIlFgh_v-60">
          <mxGeometry y="120" width="140" height="30" as="geometry" />
        </mxCell>
        <mxCell id="m-XJX8wN_ZkhcIlFgh_v-77" value="" style="shape=flexArrow;endArrow=classic;html=1;rounded=0;" edge="1" parent="m-XJX8wN_ZkhcIlFgh_v-56">
          <mxGeometry width="50" height="50" relative="1" as="geometry">
            <mxPoint x="90" y="296" as="sourcePoint" />
            <mxPoint x="121" y="296.4200000000001" as="targetPoint" />
          </mxGeometry>
        </mxCell>
        <mxCell id="m-XJX8wN_ZkhcIlFgh_v-76" value="" style="shape=flexArrow;endArrow=classic;html=1;rounded=0;" edge="1" parent="m-XJX8wN_ZkhcIlFgh_v-56">
          <mxGeometry width="50" height="50" relative="1" as="geometry">
            <mxPoint x="130" y="456" as="sourcePoint" />
            <mxPoint x="161" y="456.4200000000001" as="targetPoint" />
          </mxGeometry>
        </mxCell>
        <mxCell id="m-XJX8wN_ZkhcIlFgh_v-82" value="&lt;font color=&quot;#0000cc&quot;&gt;SongNoteContainer.jsx&lt;/font&gt;" style="swimlane;fontStyle=0;childLayout=stackLayout;horizontal=1;startSize=30;horizontalStack=0;resizeParent=1;resizeParentMax=0;resizeLast=0;collapsible=1;marginBottom=0;whiteSpace=wrap;html=1;" vertex="1" parent="m-XJX8wN_ZkhcIlFgh_v-56">
          <mxGeometry x="213" y="536" width="140" height="120" as="geometry" />
        </mxCell>
        <mxCell id="m-XJX8wN_ZkhcIlFgh_v-83" value="axios.get" style="text;strokeColor=none;fillColor=none;align=left;verticalAlign=middle;spacingLeft=4;spacingRight=4;overflow=hidden;points=[[0,0.5],[1,0.5]];portConstraint=eastwest;rotatable=0;whiteSpace=wrap;html=1;" vertex="1" parent="m-XJX8wN_ZkhcIlFgh_v-82">
          <mxGeometry y="30" width="140" height="30" as="geometry" />
        </mxCell>
        <mxCell id="m-XJX8wN_ZkhcIlFgh_v-84" value="axios.put" style="text;strokeColor=none;fillColor=none;align=left;verticalAlign=middle;spacingLeft=4;spacingRight=4;overflow=hidden;points=[[0,0.5],[1,0.5]];portConstraint=eastwest;rotatable=0;whiteSpace=wrap;html=1;" vertex="1" parent="m-XJX8wN_ZkhcIlFgh_v-82">
          <mxGeometry y="60" width="140" height="30" as="geometry" />
        </mxCell>
        <mxCell id="m-XJX8wN_ZkhcIlFgh_v-85" value="axios.delete" style="text;strokeColor=none;fillColor=none;align=left;verticalAlign=middle;spacingLeft=4;spacingRight=4;overflow=hidden;points=[[0,0.5],[1,0.5]];portConstraint=eastwest;rotatable=0;whiteSpace=wrap;html=1;" vertex="1" parent="m-XJX8wN_ZkhcIlFgh_v-82">
          <mxGeometry y="90" width="140" height="30" as="geometry" />
        </mxCell>
        <mxCell id="m-XJX8wN_ZkhcIlFgh_v-75" value="" style="shape=flexArrow;endArrow=classic;html=1;rounded=0;" edge="1" parent="m-XJX8wN_ZkhcIlFgh_v-56">
          <mxGeometry width="50" height="50" relative="1" as="geometry">
            <mxPoint x="173" y="556" as="sourcePoint" />
            <mxPoint x="204" y="556.4200000000001" as="targetPoint" />
          </mxGeometry>
        </mxCell>
        <mxCell id="m-XJX8wN_ZkhcIlFgh_v-99" value="&lt;font style=&quot;font-size: 12px;&quot;&gt;use add button &lt;br&gt;to add song&lt;/font&gt;" style="ellipse;shape=cloud;whiteSpace=wrap;html=1;fontSize=16;" vertex="1" parent="m-XJX8wN_ZkhcIlFgh_v-56">
          <mxGeometry x="230" y="200" width="140" height="72" as="geometry" />
        </mxCell>
        <mxCell id="m-XJX8wN_ZkhcIlFgh_v-103" value="&lt;span style=&quot;font-size: 12px;&quot;&gt;list of notes &lt;br&gt;for each song&lt;/span&gt;" style="ellipse;shape=cloud;whiteSpace=wrap;html=1;fontSize=16;" vertex="1" parent="m-XJX8wN_ZkhcIlFgh_v-56">
          <mxGeometry x="353" y="536" width="140" height="72" as="geometry" />
        </mxCell>
        <mxCell id="m-XJX8wN_ZkhcIlFgh_v-102" value="&lt;font style=&quot;font-size: 12px;&quot;&gt;use add button &lt;br&gt;to add song note&lt;/font&gt;" style="ellipse;shape=cloud;whiteSpace=wrap;html=1;fontSize=16;" vertex="1" parent="m-XJX8wN_ZkhcIlFgh_v-56">
          <mxGeometry x="313" y="436" width="140" height="72" as="geometry" />
        </mxCell>
        <mxCell id="m-XJX8wN_ZkhcIlFgh_v-101" value="&lt;span style=&quot;font-size: 12px;&quot;&gt;scrolling list &lt;br&gt;of songs&lt;/span&gt;" style="ellipse;shape=cloud;whiteSpace=wrap;html=1;fontSize=16;" vertex="1" parent="m-XJX8wN_ZkhcIlFgh_v-56">
          <mxGeometry x="270" y="276" width="140" height="72" as="geometry" />
        </mxCell>
        <mxCell id="m-XJX8wN_ZkhcIlFgh_v-100" value="&lt;span style=&quot;font-size: 12px;&quot;&gt;takes you to &lt;br&gt;repertoire list&lt;/span&gt;" style="ellipse;shape=cloud;whiteSpace=wrap;html=1;fontSize=16;" vertex="1" parent="m-XJX8wN_ZkhcIlFgh_v-56">
          <mxGeometry x="190" y="106" width="140" height="72" as="geometry" />
        </mxCell>
        <mxCell id="m-XJX8wN_ZkhcIlFgh_v-78" value="ToDo List" style="swimlane;fontStyle=0;childLayout=stackLayout;horizontal=1;startSize=30;horizontalStack=0;resizeParent=1;resizeParentMax=0;resizeLast=0;collapsible=1;marginBottom=0;whiteSpace=wrap;html=1;" vertex="1" parent="m-XJX8wN_ZkhcIlFgh_v-56">
          <mxGeometry x="353" y="26" width="277" height="180" as="geometry" />
        </mxCell>
        <mxCell id="m-XJX8wN_ZkhcIlFgh_v-79" value="delete songNotes when Parent song is deleted" style="text;strokeColor=none;fillColor=none;align=left;verticalAlign=middle;spacingLeft=4;spacingRight=4;overflow=hidden;points=[[0,0.5],[1,0.5]];portConstraint=eastwest;rotatable=0;whiteSpace=wrap;html=1;" vertex="1" parent="m-XJX8wN_ZkhcIlFgh_v-78">
          <mxGeometry y="30" width="277" height="30" as="geometry" />
        </mxCell>
        <mxCell id="m-XJX8wN_ZkhcIlFgh_v-81" value="get each song note to appear on Add" style="text;strokeColor=none;fillColor=none;align=left;verticalAlign=middle;spacingLeft=4;spacingRight=4;overflow=hidden;points=[[0,0.5],[1,0.5]];portConstraint=eastwest;rotatable=0;whiteSpace=wrap;html=1;" vertex="1" parent="m-XJX8wN_ZkhcIlFgh_v-78">
          <mxGeometry y="60" width="277" height="30" as="geometry" />
        </mxCell>
        <mxCell id="m-XJX8wN_ZkhcIlFgh_v-86" value="get check box to toggle&amp;nbsp;" style="text;strokeColor=none;fillColor=none;align=left;verticalAlign=middle;spacingLeft=4;spacingRight=4;overflow=hidden;points=[[0,0.5],[1,0.5]];portConstraint=eastwest;rotatable=0;whiteSpace=wrap;html=1;" vertex="1" parent="m-XJX8wN_ZkhcIlFgh_v-78">
          <mxGeometry y="90" width="277" height="30" as="geometry" />
        </mxCell>
        <mxCell id="m-XJX8wN_ZkhcIlFgh_v-87" value="have song note persist when check box checked&amp;nbsp;" style="text;strokeColor=none;fillColor=none;align=left;verticalAlign=middle;spacingLeft=4;spacingRight=4;overflow=hidden;points=[[0,0.5],[1,0.5]];portConstraint=eastwest;rotatable=0;whiteSpace=wrap;html=1;" vertex="1" parent="m-XJX8wN_ZkhcIlFgh_v-78">
          <mxGeometry y="120" width="277" height="30" as="geometry" />
        </mxCell>
        <mxCell id="m-XJX8wN_ZkhcIlFgh_v-88" value="functioning arrow keys on song slide&amp;nbsp;" style="text;strokeColor=none;fillColor=none;align=left;verticalAlign=middle;spacingLeft=4;spacingRight=4;overflow=hidden;points=[[0,0.5],[1,0.5]];portConstraint=eastwest;rotatable=0;whiteSpace=wrap;html=1;" vertex="1" parent="m-XJX8wN_ZkhcIlFgh_v-78">
          <mxGeometry y="150" width="277" height="30" as="geometry" />
        </mxCell>
        <mxCell id="m-XJX8wN_ZkhcIlFgh_v-117" value="&lt;span style=&quot;font-size: 12px;&quot;&gt;sign in / log in&lt;br&gt;to get this far&amp;nbsp;&lt;/span&gt;" style="ellipse;shape=cloud;whiteSpace=wrap;html=1;fontSize=16;" vertex="1" parent="m-XJX8wN_ZkhcIlFgh_v-56">
          <mxGeometry x="150" y="30" width="140" height="72" as="geometry" />
        </mxCell>
        <mxCell id="m-XJX8wN_ZkhcIlFgh_v-92" value="" style="shape=flexArrow;endArrow=classic;html=1;rounded=0;fontSize=12;startSize=8;endSize=14.96;curved=1;endWidth=35;width=25;" edge="1" parent="1">
          <mxGeometry width="50" height="50" relative="1" as="geometry">
            <mxPoint x="-790" y="209.75" as="sourcePoint" />
            <mxPoint x="-679.5" y="209.5" as="targetPoint" />
            <Array as="points" />
          </mxGeometry>
        </mxCell>
        <mxCell id="m-XJX8wN_ZkhcIlFgh_v-93" value="back end 3" style="edgeLabel;html=1;align=center;verticalAlign=middle;resizable=0;points=[];fontSize=16;" vertex="1" connectable="0" parent="m-XJX8wN_ZkhcIlFgh_v-92">
          <mxGeometry x="0.2606" y="3" relative="1" as="geometry">
            <mxPoint x="-19" y="3" as="offset" />
          </mxGeometry>
        </mxCell>
        <mxCell id="m-XJX8wN_ZkhcIlFgh_v-94" value="" style="shape=flexArrow;endArrow=classic;html=1;rounded=0;fontSize=12;startSize=8;endSize=14.96;curved=1;endWidth=35;width=25;" edge="1" parent="1">
          <mxGeometry width="50" height="50" relative="1" as="geometry">
            <mxPoint x="-790" y="367.25" as="sourcePoint" />
            <mxPoint x="-679.5" y="367" as="targetPoint" />
            <Array as="points" />
          </mxGeometry>
        </mxCell>
        <mxCell id="m-XJX8wN_ZkhcIlFgh_v-95" value="back end 2" style="edgeLabel;html=1;align=center;verticalAlign=middle;resizable=0;points=[];fontSize=16;" vertex="1" connectable="0" parent="m-XJX8wN_ZkhcIlFgh_v-94">
          <mxGeometry x="0.2606" y="3" relative="1" as="geometry">
            <mxPoint x="-19" y="3" as="offset" />
          </mxGeometry>
        </mxCell>
        <mxCell id="m-XJX8wN_ZkhcIlFgh_v-97" value="" style="shape=flexArrow;endArrow=classic;html=1;rounded=0;fontSize=12;startSize=8;endSize=14.96;curved=1;endWidth=35;width=25;" edge="1" parent="1">
          <mxGeometry width="50" height="50" relative="1" as="geometry">
            <mxPoint x="-790" y="244.25" as="sourcePoint" />
            <mxPoint x="-679.5" y="244" as="targetPoint" />
            <Array as="points" />
          </mxGeometry>
        </mxCell>
        <mxCell id="m-XJX8wN_ZkhcIlFgh_v-98" value="back end 4" style="edgeLabel;html=1;align=center;verticalAlign=middle;resizable=0;points=[];fontSize=16;" vertex="1" connectable="0" parent="m-XJX8wN_ZkhcIlFgh_v-97">
          <mxGeometry x="0.2606" y="3" relative="1" as="geometry">
            <mxPoint x="-19" y="3" as="offset" />
          </mxGeometry>
        </mxCell>
        <mxCell id="m-XJX8wN_ZkhcIlFgh_v-108" value="Principal Folders / Files" style="swimlane;whiteSpace=wrap;html=1;fontSize=16;" vertex="1" parent="1">
          <mxGeometry x="-800" y="11.5" width="640" height="638.5" as="geometry" />
        </mxCell>
        <mxCell id="m-XJX8wN_ZkhcIlFgh_v-111" value="" style="edgeStyle=none;curved=1;rounded=0;orthogonalLoop=1;jettySize=auto;html=1;fontSize=12;startSize=8;endSize=8;" edge="1" parent="m-XJX8wN_ZkhcIlFgh_v-108" source="m-XJX8wN_ZkhcIlFgh_v-109">
          <mxGeometry relative="1" as="geometry">
            <mxPoint x="70" y="140" as="targetPoint" />
          </mxGeometry>
        </mxCell>
        <mxCell id="m-XJX8wN_ZkhcIlFgh_v-109" value="&lt;font style=&quot;font-size: 12px;&quot;&gt;links from&lt;br&gt;front to back&lt;/font&gt;" style="ellipse;shape=cloud;whiteSpace=wrap;html=1;fontSize=16;" vertex="1" parent="m-XJX8wN_ZkhcIlFgh_v-108">
          <mxGeometry x="10" y="34.5" width="120" height="75.5" as="geometry" />
        </mxCell>
        <mxCell id="bgRoYJ5HiotTTFX9SD88-34" value="LoginForm.js" style="rounded=0;whiteSpace=wrap;html=1;fontSize=10;fontColor=#CCFFFF;labelBackgroundColor=#000000;fillColor=#000000;" parent="m-XJX8wN_ZkhcIlFgh_v-108" vertex="1">
          <mxGeometry x="270" y="428.5" width="100" height="17" as="geometry" />
        </mxCell>
        <mxCell id="DboayZRuPOaU90iK0Edl-112" value="SignUpForm" style="html=1;verticalLabelPosition=middle;align=center;labelBackgroundColor=#ffffff;verticalAlign=middle;strokeWidth=2;strokeColor=#0080F0;shadow=0;dashed=0;shape=mxgraph.ios7.icons.folder;labelPosition=center;fontSize=11;" parent="m-XJX8wN_ZkhcIlFgh_v-108" vertex="1">
          <mxGeometry x="201" y="476.5" width="60" height="21" as="geometry" />
        </mxCell>
        <mxCell id="DboayZRuPOaU90iK0Edl-113" value="NavBar" style="html=1;verticalLabelPosition=middle;align=center;labelBackgroundColor=#ffffff;verticalAlign=middle;strokeWidth=2;strokeColor=#0080F0;shadow=0;dashed=0;shape=mxgraph.ios7.icons.folder;labelPosition=center;fontSize=11;" parent="m-XJX8wN_ZkhcIlFgh_v-108" vertex="1">
          <mxGeometry x="201" y="451.5" width="60" height="21" as="geometry" />
        </mxCell>
        <mxCell id="DboayZRuPOaU90iK0Edl-114" value="LoginForm.js" style="rounded=0;whiteSpace=wrap;html=1;fontSize=10;fontColor=#CCFFFF;labelBackgroundColor=#000000;fillColor=#000000;" parent="m-XJX8wN_ZkhcIlFgh_v-108" vertex="1">
          <mxGeometry x="270" y="454.5" width="100" height="17" as="geometry" />
        </mxCell>
        <mxCell id="DboayZRuPOaU90iK0Edl-115" value="LoginForm.js" style="rounded=0;whiteSpace=wrap;html=1;fontSize=10;fontColor=#CCFFFF;labelBackgroundColor=#000000;fillColor=#000000;" parent="m-XJX8wN_ZkhcIlFgh_v-108" vertex="1">
          <mxGeometry x="270" y="478.5" width="100" height="17" as="geometry" />
        </mxCell>
        <mxCell id="ZUA0W-4StkhMuRzMiBck-22" value="pages" style="html=1;verticalLabelPosition=middle;align=center;labelBackgroundColor=#ffffff;verticalAlign=middle;strokeWidth=2;strokeColor=#0080F0;shadow=0;dashed=0;shape=mxgraph.ios7.icons.folder;labelPosition=center;fontSize=11;" parent="m-XJX8wN_ZkhcIlFgh_v-108" vertex="1">
          <mxGeometry x="180" y="500.5" width="60" height="21" as="geometry" />
        </mxCell>
        <mxCell id="ZUA0W-4StkhMuRzMiBck-23" value="utilities" style="html=1;verticalLabelPosition=middle;align=center;labelBackgroundColor=#ffffff;verticalAlign=middle;strokeWidth=2;strokeColor=#0080F0;shadow=0;dashed=0;shape=mxgraph.ios7.icons.folder;labelPosition=center;fontSize=11;" parent="m-XJX8wN_ZkhcIlFgh_v-108" vertex="1">
          <mxGeometry x="180" y="525.5" width="60" height="21" as="geometry" />
        </mxCell>
        <mxCell id="m-XJX8wN_ZkhcIlFgh_v-2" value="&lt;font color=&quot;#ffffff&quot;&gt;package.json&lt;/font&gt;" style="rounded=0;whiteSpace=wrap;html=1;fontSize=10;fontColor=#CCFFFF;labelBackgroundColor=#000000;fillColor=#000000;" vertex="1" parent="m-XJX8wN_ZkhcIlFgh_v-108">
          <mxGeometry x="179" y="570.5" width="100" height="17" as="geometry" />
        </mxCell>
        <mxCell id="m-XJX8wN_ZkhcIlFgh_v-15" value="" style="shape=flexArrow;endArrow=classic;html=1;rounded=0;fontSize=12;startSize=8;endSize=14.96;curved=1;endWidth=35;width=25;" edge="1" parent="m-XJX8wN_ZkhcIlFgh_v-108">
          <mxGeometry width="50" height="50" relative="1" as="geometry">
            <mxPoint x="10" y="537.5" as="sourcePoint" />
            <mxPoint x="120.5" y="537.5" as="targetPoint" />
            <Array as="points" />
          </mxGeometry>
        </mxCell>
        <mxCell id="m-XJX8wN_ZkhcIlFgh_v-16" value="front end 5" style="edgeLabel;html=1;align=center;verticalAlign=middle;resizable=0;points=[];fontSize=16;" vertex="1" connectable="0" parent="m-XJX8wN_ZkhcIlFgh_v-15">
          <mxGeometry x="0.2606" y="3" relative="1" as="geometry">
            <mxPoint x="-21" y="3" as="offset" />
          </mxGeometry>
        </mxCell>
        <mxCell id="m-XJX8wN_ZkhcIlFgh_v-105" value="&lt;font color=&quot;#ffffff&quot;&gt;server.js&lt;/font&gt;" style="rounded=0;whiteSpace=wrap;html=1;fontSize=10;fontColor=#CCFFFF;labelBackgroundColor=#000000;fillColor=#000000;" vertex="1" parent="m-XJX8wN_ZkhcIlFgh_v-108">
          <mxGeometry x="178" y="591.5" width="100" height="17" as="geometry" />
        </mxCell>
        <mxCell id="m-XJX8wN_ZkhcIlFgh_v-106" value="&lt;font color=&quot;#ffffff&quot;&gt;.env&lt;/font&gt;" style="rounded=0;whiteSpace=wrap;html=1;fontSize=10;fontColor=#CCFFFF;labelBackgroundColor=#000000;fillColor=#000000;" vertex="1" parent="m-XJX8wN_ZkhcIlFgh_v-108">
          <mxGeometry x="179" y="549.5" width="100" height="17" as="geometry" />
        </mxCell>
        <mxCell id="m-XJX8wN_ZkhcIlFgh_v-107" value="(all pages folders, css/jsx files)" style="rounded=0;whiteSpace=wrap;html=1;fontSize=10;fontColor=#CCFFFF;labelBackgroundColor=#000000;fillColor=#000000;" vertex="1" parent="m-XJX8wN_ZkhcIlFgh_v-108">
          <mxGeometry x="250" y="503.5" width="140" height="17" as="geometry" />
        </mxCell>
        <mxCell id="m-XJX8wN_ZkhcIlFgh_v-90" value="" style="shape=flexArrow;endArrow=classic;html=1;rounded=0;fontSize=12;startSize=8;endSize=14.96;curved=1;endWidth=35;width=25;" edge="1" parent="m-XJX8wN_ZkhcIlFgh_v-108">
          <mxGeometry width="50" height="50" relative="1" as="geometry">
            <mxPoint x="10" y="599.75" as="sourcePoint" />
            <mxPoint x="120.5" y="599.5" as="targetPoint" />
            <Array as="points" />
          </mxGeometry>
        </mxCell>
        <mxCell id="m-XJX8wN_ZkhcIlFgh_v-91" value="back end 1" style="edgeLabel;html=1;align=center;verticalAlign=middle;resizable=0;points=[];fontSize=16;" vertex="1" connectable="0" parent="m-XJX8wN_ZkhcIlFgh_v-90">
          <mxGeometry x="0.2606" y="3" relative="1" as="geometry">
            <mxPoint x="-19" y="3" as="offset" />
          </mxGeometry>
        </mxCell>
        <mxCell id="m-XJX8wN_ZkhcIlFgh_v-115" value="&lt;font color=&quot;#ffffff&quot;&gt;users-service.js&lt;/font&gt;" style="rounded=0;whiteSpace=wrap;html=1;fontSize=10;fontColor=#CCFFFF;labelBackgroundColor=#000000;fillColor=#000000;" vertex="1" parent="m-XJX8wN_ZkhcIlFgh_v-108">
          <mxGeometry x="470" y="528.5" width="100" height="17" as="geometry" />
        </mxCell>
        <mxCell id="m-XJX8wN_ZkhcIlFgh_v-114" value="&lt;font color=&quot;#ffffff&quot;&gt;users-api.js&lt;/font&gt;" style="rounded=0;whiteSpace=wrap;html=1;fontSize=10;fontColor=#CCFFFF;labelBackgroundColor=#000000;fillColor=#000000;" vertex="1" parent="m-XJX8wN_ZkhcIlFgh_v-108">
          <mxGeometry x="360" y="528.5" width="100" height="17" as="geometry" />
        </mxCell>
        <mxCell id="m-XJX8wN_ZkhcIlFgh_v-113" value="&lt;font color=&quot;#ffffff&quot;&gt;send-request.js&lt;/font&gt;" style="rounded=0;whiteSpace=wrap;html=1;fontSize=10;fontColor=#CCFFFF;labelBackgroundColor=#000000;fillColor=#000000;" vertex="1" parent="m-XJX8wN_ZkhcIlFgh_v-108">
          <mxGeometry x="250" y="528.5" width="100" height="17" as="geometry" />
        </mxCell>
        <mxCell id="m-XJX8wN_ZkhcIlFgh_v-116" value="&lt;span style=&quot;font-size: 12px;&quot;&gt;takes you to &lt;br&gt;repertoire list&lt;/span&gt;" style="ellipse;shape=cloud;whiteSpace=wrap;html=1;fontSize=16;" vertex="1" parent="1">
          <mxGeometry x="-610" y="776" width="140" height="72" as="geometry" />
        </mxCell>
      </root>
    </mxGraphModel>
  </diagram>
</mxfile>
